<?xml version="1.0" encoding="UTF-8" standalone="no"?>
<!-- Created with Inkscape (http://www.inkscape.org/) -->

<svg
   xmlns:dc="http://purl.org/dc/elements/1.1/"
   xmlns:cc="http://creativecommons.org/ns#"
   xmlns:rdf="http://www.w3.org/1999/02/22-rdf-syntax-ns#"
   xmlns:svg="http://www.w3.org/2000/svg"
   xmlns="http://www.w3.org/2000/svg"
   xmlns:sodipodi="http://sodipodi.sourceforge.net/DTD/sodipodi-0.dtd"
   xmlns:inkscape="http://www.inkscape.org/namespaces/inkscape"
   width="48"
   height="48"
   viewBox="0 0 48 48.000001"
   id="svg2"
   version="1.1"
   inkscape:version="0.91 r13725"
   sodipodi:docname="full_size.svg">
  <defs
     id="defs4" />
  <sodipodi:namedview
     id="base"
     pagecolor="#ffffff"
     bordercolor="#666666"
     borderopacity="1.0"
     inkscape:pageopacity="0.0"
     inkscape:pageshadow="2"
     inkscape:zoom="3.6119045"
     inkscape:cx="-65.13816"
     inkscape:cy="24.564764"
     inkscape:document-units="px"
     inkscape:current-layer="layer1"
     showgrid="true"
     units="px"
     inkscape:window-width="1366"
     inkscape:window-height="719"
     inkscape:window-x="0"
     inkscape:window-y="25"
     inkscape:window-maximized="1">
    <inkscape:grid
       type="xygrid"
       id="grid4164" />
  </sodipodi:namedview>
  <metadata
     id="metadata7">
    <rdf:RDF>
      <cc:Work
         rdf:about="">
        <dc:format>image/svg+xml</dc:format>
        <dc:type
           rdf:resource="http://purl.org/dc/dcmitype/StillImage" />
        <dc:title />
      </cc:Work>
    </rdf:RDF>
  </metadata>
  <g
     inkscape:label="Layer 1"
     inkscape:groupmode="layer"
     id="layer1"
     transform="translate(0,-1004.3622)">
    <rect
       style="fill:#c8c8c8;fill-opacity:0.47058824;fill-rule:evenodd;stroke:#3c3c3c;stroke-width:0.97959203px;stroke-linecap:butt;stroke-linejoin:miter;stroke-opacity:1"
       id="rect4142"
       width="47.020409"
       height="47.020409"
       x="0.48979601"
       y="1004.852"
       ry="4.8979778" />
    <path
       style="opacity:0.76999996;fill:#000000;fill-rule:evenodd;stroke:none;stroke-width:1px;stroke-linecap:butt;stroke-linejoin:miter;stroke-opacity:1"
       d="m 5.647614,1007.1889 -0.020601,0.02 -2.8583906,0 0,0.1717 0,2.6867 0,0.6575 0,12.4774 3.5159063,0 0,-9.619 9.4421313,9.4421 2.878991,-2.879 -9.4215297,-9.4215 9.4060797,0 0,-3.5159 -12.921986,0 -0.020601,-0.02 z m 36.407142,0 -0.02059,0.02 -12.921986,0 0,3.5159 9.406081,0 -9.42153,9.4215 2.878991,2.879 9.442131,-9.4421 0,9.619 3.515906,0 0,-12.4774 0,-0.6575 0,-2.6867 0,-0.1717 -2.858391,0 -0.0206,-0.02 z m -39.2861336,26.3693 0,12.4773 0,0.6576 0,2.6866 0,0.1717 2.8583906,0 0.020601,0.02 0.020601,-0.02 12.921987,0 0,-3.5159 -9.4060807,0 9.4215307,-9.4216 -2.878991,-2.8789 -9.4421324,9.4422 0,-9.619 -3.5159063,0 z m 38.6492196,0 0,9.619 -9.442131,-9.4422 -2.878992,2.8789 9.42153,9.4216 -9.406079,0 0,3.5159 12.921985,0 0.02059,0.02 0.0206,-0.02 2.858391,0 0,-0.1717 0,-2.6866 0,-0.6576 0,-12.4773 -3.515907,0 z"
       id="rect4248"
       inkscape:connector-curvature="0" />
  </g>
</svg>
