<?xml version="1.0" encoding="UTF-8" standalone="no"?>
<!-- Created with Inkscape (http://www.inkscape.org/) -->

<svg
   xmlns:dc="http://purl.org/dc/elements/1.1/"
   xmlns:cc="http://creativecommons.org/ns#"
   xmlns:rdf="http://www.w3.org/1999/02/22-rdf-syntax-ns#"
   xmlns:svg="http://www.w3.org/2000/svg"
   xmlns="http://www.w3.org/2000/svg"
   xmlns:sodipodi="http://sodipodi.sourceforge.net/DTD/sodipodi-0.dtd"
   xmlns:inkscape="http://www.inkscape.org/namespaces/inkscape"
   width="48"
   height="48"
   viewBox="0 0 48 48.000001"
   id="svg2"
   version="1.1"
   inkscape:version="0.91 r13725"
   sodipodi:docname="small_size.svg">
  <defs
     id="defs4" />
  <sodipodi:namedview
     id="base"
     pagecolor="#ffffff"
     bordercolor="#666666"
     borderopacity="1.0"
     inkscape:pageopacity="0.0"
     inkscape:pageshadow="2"
     inkscape:zoom="6.4566132"
     inkscape:cx="13.661684"
     inkscape:cy="24.80204"
     inkscape:document-units="px"
     inkscape:current-layer="layer1"
     showgrid="true"
     units="px"
     inkscape:window-width="1366"
     inkscape:window-height="719"
     inkscape:window-x="0"
     inkscape:window-y="25"
     inkscape:window-maximized="1">
    <inkscape:grid
       type="xygrid"
       id="grid4164" />
  </sodipodi:namedview>
  <metadata
     id="metadata7">
    <rdf:RDF>
      <cc:Work
         rdf:about="">
        <dc:format>image/svg+xml</dc:format>
        <dc:type
           rdf:resource="http://purl.org/dc/dcmitype/StillImage" />
        <dc:title />
      </cc:Work>
    </rdf:RDF>
  </metadata>
  <g
     inkscape:label="Layer 1"
     inkscape:groupmode="layer"
     id="layer1"
     transform="translate(0,-1004.3622)">
    <rect
       style="fill:#c8c8c8;fill-rule:evenodd;stroke:#3c3c3c;stroke-width:0.97959203px;stroke-linecap:butt;stroke-linejoin:miter;stroke-opacity:1;fill-opacity:0.47058824"
       id="rect4142"
       width="47.020409"
       height="47.020409"
       x="0.48979601"
       y="1004.852"
       ry="4.8979778" />
    <path
       style="fill:#3c3c3c;fill-rule:evenodd;stroke:none;stroke-width:1px;stroke-linecap:butt;stroke-linejoin:miter;stroke-opacity:1;fill-opacity:1"
       d="m 15.000533,1006.5506 0,9.9762 -9.8337986,-9.7928 -2.9984149,2.9859 9.8123445,9.7714 -9.7962528,0 0,3.6465 13.4580008,0 0.02146,0.021 0.02146,-0.021 2.976959,0 0,-0.178 0,-2.7865 0,-0.682 0,-12.9407 -3.661749,0 z m 14.673818,0 0,12.9407 0,0.682 0,2.7865 0,0.178 2.976959,0 0.02146,0.021 0.02146,-0.021 13.458001,0 0,-3.6465 -9.796252,0 9.812344,-9.7714 -2.998415,-2.9859 -9.833799,9.7928 0,-9.9762 -3.66175,0 z m -14.010483,27.3914 -0.02146,0.021 -13.4580017,0 0,3.6465 9.7962527,0 -9.8123395,9.7718 2.9984149,2.9859 9.8337986,-9.7928 0,9.9762 3.66175,0 0,-12.9408 0,-0.6819 0,-2.7865 0,-0.1781 -2.976959,0 -0.02146,-0.021 z m 17.008898,0 -0.02146,0.021 -2.976959,0 0,0.1781 0,2.7865 0,0.6819 0,12.9408 3.661749,0 0,-9.9762 9.833799,9.7928 2.998416,-2.9859 -9.812344,-9.7715 9.796252,0 0,-3.6465 -13.458002,0 -0.02146,-0.021 z"
       id="path4272"
       inkscape:connector-curvature="0" />
  </g>
</svg>
